ISO-10303-21;
HEADER;
/* Generated by software containing ST-Developer
 * from STEP Tools, Inc. (www.steptools.com) 
 */

FILE_DESCRIPTION(
/* description */ (''),
/* implementation_level */ '2;1');

FILE_NAME(
/* name */ 'frame_assembly.step',
/* time_stamp */ '2026-07-25T14:26:27-04:00',
/* author */ (''),
/* organization */ (''),
/* preprocessor_version */ 'ST-DEVELOPER v20.1',
/* originating_system */ 'Autodesk Translation Framework v15.8.0.0',
/* authorisation */ '');

FILE_SCHEMA (('AUTOMOTIVE_DESIGN { 1 0 10303 214 3 1 1 }'));
ENDSEC;

DATA;
#10=MECHANICAL_DESIGN_GEOMETRIC_PRESENTATION_REPRESENTATION('',(#13),#1311);
#11=SHAPE_REPRESENTATION_RELATIONSHIP('SRR','None',#1318,#12);
#12=ADVANCED_BREP_SHAPE_REPRESENTATION('',(#14),#1310);
#13=STYLED_ITEM('',(#1327),#14);
#14=MANIFOLD_SOLID_BREP('frame',#811);
#15=FACE_BOUND('',#116,.T.);
#16=FACE_BOUND('',#117,.T.);
#17=FACE_BOUND('',#118,.T.);
#18=FACE_BOUND('',#119,.T.);
#19=FACE_BOUND('',#120,.T.);
#20=FACE_BOUND('',#121,.T.);
#21=FACE_BOUND('',#123,.T.);
#22=FACE_BOUND('',#124,.T.);
#23=FACE_BOUND('',#144,.T.);
#24=FACE_BOUND('',#145,.T.);
#25=FACE_BOUND('',#146,.T.);
#26=FACE_BOUND('',#147,.T.);
#27=FACE_BOUND('',#148,.T.);
#28=FACE_BOUND('',#149,.T.);
#29=FACE_BOUND('',#150,.T.);
#30=FACE_BOUND('',#151,.T.);
#31=FACE_BOUND('',#155,.T.);
#32=FACE_BOUND('',#156,.T.);
#33=FACE_BOUND('',#157,.T.);
#34=FACE_BOUND('',#158,.T.);
#35=CIRCLE('',#834,3.);
#36=CIRCLE('',#835,3.);
#37=CIRCLE('',#837,3.);
#38=CIRCLE('',#838,3.);
#39=CIRCLE('',#840,3.);
#40=CIRCLE('',#841,3.);
#41=CIRCLE('',#843,3.);
#42=CIRCLE('',#844,3.);
#43=CIRCLE('',#852,1.6);
#44=CIRCLE('',#853,1.6);
#45=CIRCLE('',#855,1.6);
#46=CIRCLE('',#856,1.6);
#47=CIRCLE('',#858,1.6);
#48=CIRCLE('',#859,1.6);
#49=CIRCLE('',#861,1.6);
#50=CIRCLE('',#862,1.6);
#51=CYLINDRICAL_SURFACE('',#833,3.);
#52=CYLINDRICAL_SURFACE('',#836,3.);
#53=CYLINDRICAL_SURFACE('',#839,3.);
#54=CYLINDRICAL_SURFACE('',#842,3.);
#55=CYLINDRICAL_SURFACE('',#851,1.6);
#56=CYLINDRICAL_SURFACE('',#854,1.6);
#57=CYLINDRICAL_SURFACE('',#857,1.6);
#58=CYLINDRICAL_SURFACE('',#860,1.6);
#59=FACE_OUTER_BOUND('',#99,.T.);
#60=FACE_OUTER_BOUND('',#100,.T.);
#61=FACE_OUTER_BOUND('',#101,.T.);
#62=FACE_OUTER_BOUND('',#102,.T.);
#63=FACE_OUTER_BOUND('',#103,.T.);
#64=FACE_OUTER_BOUND('',#104,.T.);
#65=FACE_OUTER_BOUND('',#105,.T.);
#66=FACE_OUTER_BOUND('',#106,.T.);
#67=FACE_OUTER_BOUND('',#107,.T.);
#68=FACE_OUTER_BOUND('',#108,.T.);
#69=FACE_OUTER_BOUND('',#109,.T.);
#70=FACE_OUTER_BOUND('',#110,.T.);
#71=FACE_OUTER_BOUND('',#111,.T.);
#72=FACE_OUTER_BOUND('',#112,.T.);
#73=FACE_OUTER_BOUND('',#113,.T.);
#74=FACE_OUTER_BOUND('',#114,.T.);
#75=FACE_OUTER_BOUND('',#115,.T.);
#76=FACE_OUTER_BOUND('',#122,.T.);
#77=FACE_OUTER_BOUND('',#125,.T.);
#78=FACE_OUTER_BOUND('',#126,.T.);
#79=FACE_OUTER_BOUND('',#127,.T.);
#80=FACE_OUTER_BOUND('',#128,.T.);
#81=FACE_OUTER_BOUND('',#129,.T.);
#82=FACE_OUTER_BOUND('',#130,.T.);
#83=FACE_OUTER_BOUND('',#131,.T.);
#84=FACE_OUTER_BOUND('',#132,.T.);
#85=FACE_OUTER_BOUND('',#133,.T.);
#86=FACE_OUTER_BOUND('',#134,.T.);
#87=FACE_OUTER_BOUND('',#135,.T.);
#88=FACE_OUTER_BOUND('',#136,.T.);
#89=FACE_OUTER_BOUND('',#137,.T.);
#90=FACE_OUTER_BOUND('',#138,.T.);
#91=FACE_OUTER_BOUND('',#139,.T.);
#92=FACE_OUTER_BOUND('',#140,.T.);
#93=FACE_OUTER_BOUND('',#141,.T.);
#94=FACE_OUTER_BOUND('',#142,.T.);
#95=FACE_OUTER_BOUND('',#143,.T.);
#96=FACE_OUTER_BOUND('',#152,.T.);
#97=FACE_OUTER_BOUND('',#153,.T.);
#98=FACE_OUTER_BOUND('',#154,.T.);
#99=EDGE_LOOP('',(#523,#524,#525,#526));
#100=EDGE_LOOP('',(#527,#528,#529,#530));
#101=EDGE_LOOP('',(#531,#532,#533,#534));
#102=EDGE_LOOP('',(#535,#536,#537,#538));
#103=EDGE_LOOP('',(#539,#540,#541,#542));
#104=EDGE_LOOP('',(#543,#544,#545,#546));
#105=EDGE_LOOP('',(#547,#548,#549,#550));
#106=EDGE_LOOP('',(#551,#552,#553,#554));
#107=EDGE_LOOP('',(#555,#556,#557,#558));
#108=EDGE_LOOP('',(#559,#560,#561,#562));
#109=EDGE_LOOP('',(#563,#564,#565,#566));
#110=EDGE_LOOP('',(#567,#568,#569,#570));
#111=EDGE_LOOP('',(#571,#572,#573,#574));
#112=EDGE_LOOP('',(#575,#576,#577,#578));
#113=EDGE_LOOP('',(#579,#580,#581,#582));
#114=EDGE_LOOP('',(#583,#584,#585,#586));
#115=EDGE_LOOP('',(#587,#588,#589,#590));
#116=EDGE_LOOP('',(#591,#592,#593,#594));
#117=EDGE_LOOP('',(#595,#596,#597,#598));
#118=EDGE_LOOP('',(#599));
#119=EDGE_LOOP('',(#600));
#120=EDGE_LOOP('',(#601));
#121=EDGE_LOOP('',(#602));
#122=EDGE_LOOP('',(#603,#604,#605,#606));
#123=EDGE_LOOP('',(#607,#608,#609,#610));
#124=EDGE_LOOP('',(#611,#612,#613,#614));
#125=EDGE_LOOP('',(#615,#616,#617,#618));
#126=EDGE_LOOP('',(#619,#620,#621,#622));
#127=EDGE_LOOP('',(#623,#624,#625,#626));
#128=EDGE_LOOP('',(#627,#628,#629,#630));
#129=EDGE_LOOP('',(#631,#632,#633,#634));
#130=EDGE_LOOP('',(#635,#636,#637,#638));
#131=EDGE_LOOP('',(#639,#640,#641,#642));
#132=EDGE_LOOP('',(#643,#644,#645,#646));
#133=EDGE_LOOP('',(#647,#648,#649,#650));
#134=EDGE_LOOP('',(#651,#652,#653,#654));
#135=EDGE_LOOP('',(#655,#656,#657,#658));
#136=EDGE_LOOP('',(#659,#660,#661,#662));
#137=EDGE_LOOP('',(#663,#664,#665,#666));
#138=EDGE_LOOP('',(#667,#668,#669,#670));
#139=EDGE_LOOP('',(#671,#672,#673,#674));
#140=EDGE_LOOP('',(#675,#676,#677,#678));
#141=EDGE_LOOP('',(#679,#680,#681,#682));
#142=EDGE_LOOP('',(#683,#684,#685,#686));
#143=EDGE_LOOP('',(#687,#688,#689,#690,#691,#692,#693,#694,#695,#696,#697,
#698,#699,#700,#701,#702));
#144=EDGE_LOOP('',(#703));
#145=EDGE_LOOP('',(#704));
#146=EDGE_LOOP('',(#705));
#147=EDGE_LOOP('',(#706));
#148=EDGE_LOOP('',(#707));
#149=EDGE_LOOP('',(#708));
#150=EDGE_LOOP('',(#709));
#151=EDGE_LOOP('',(#710));
#152=EDGE_LOOP('',(#711,#712,#713,#714));
#153=EDGE_LOOP('',(#715,#716,#717,#718));
#154=EDGE_LOOP('',(#719,#720,#721,#722,#723,#724,#725,#726,#727,#728,#729,
#730,#731,#732,#733,#734));
#155=EDGE_LOOP('',(#735));
#156=EDGE_LOOP('',(#736));
#157=EDGE_LOOP('',(#737));
#158=EDGE_LOOP('',(#738));
#159=LINE('',#1091,#251);
#160=LINE('',#1093,#252);
#161=LINE('',#1095,#253);
#162=LINE('',#1096,#254);
#163=LINE('',#1099,#255);
#164=LINE('',#1101,#256);
#165=LINE('',#1102,#257);
#166=LINE('',#1105,#258);
#167=LINE('',#1107,#259);
#168=LINE('',#1108,#260);
#169=LINE('',#1110,#261);
#170=LINE('',#1111,#262);
#171=LINE('',#1115,#263);
#172=LINE('',#1117,#264);
#173=LINE('',#1119,#265);
#174=LINE('',#1120,#266);
#175=LINE('',#1123,#267);
#176=LINE('',#1125,#268);
#177=LINE('',#1126,#269);
#178=LINE('',#1129,#270);
#179=LINE('',#1131,#271);
#180=LINE('',#1132,#272);
#181=LINE('',#1134,#273);
#182=LINE('',#1135,#274);
#183=LINE('',#1140,#275);
#184=LINE('',#1146,#276);
#185=LINE('',#1152,#277);
#186=LINE('',#1158,#278);
#187=LINE('',#1163,#279);
#188=LINE('',#1165,#280);
#189=LINE('',#1167,#281);
#190=LINE('',#1168,#282);
#191=LINE('',#1171,#283);
#192=LINE('',#1173,#284);
#193=LINE('',#1174,#285);
#194=LINE('',#1177,#286);
#195=LINE('',#1179,#287);
#196=LINE('',#1180,#288);
#197=LINE('',#1182,#289);
#198=LINE('',#1183,#290);
#199=LINE('',#1190,#291);
#200=LINE('',#1196,#292);
#201=LINE('',#1202,#293);
#202=LINE('',#1208,#294);
#203=LINE('',#1213,#295);
#204=LINE('',#1215,#296);
#205=LINE('',#1217,#297);
#206=LINE('',#1218,#298);
#207=LINE('',#1222,#299);
#208=LINE('',#1224,#300);
#209=LINE('',#1226,#301);
#210=LINE('',#1227,#302);
#211=LINE('',#1231,#303);
#212=LINE('',#1233,#304);
#213=LINE('',#1235,#305);
#214=LINE('',#1236,#306);
#215=LINE('',#1240,#307);
#216=LINE('',#1242,#308);
#217=LINE('',#1244,#309);
#218=LINE('',#1245,#310);
#219=LINE('',#1249,#311);
#220=LINE('',#1251,#312);
#221=LINE('',#1253,#313);
#222=LINE('',#1254,#314);
#223=LINE('',#1256,#315);
#224=LINE('',#1257,#316);
#225=LINE('',#1261,#317);
#226=LINE('',#1263,#318);
#227=LINE('',#1265,#319);
#228=LINE('',#1266,#320);
#229=LINE('',#1268,#321);
#230=LINE('',#1269,#322);
#231=LINE('',#1272,#323);
#232=LINE('',#1274,#324);
#233=LINE('',#1275,#325);
#234=LINE('',#1279,#326);
#235=LINE('',#1280,#327);
#236=LINE('',#1281,#328);
#237=LINE('',#1284,#329);
#238=LINE('',#1286,#330);
#239=LINE('',#1287,#331);
#240=LINE('',#1291,#332);
#241=LINE('',#1292,#333);
#242=LINE('',#1293,#334);
#243=LINE('',#1295,#335);
#244=LINE('',#1296,#336);
#245=LINE('',#1298,#337);
#246=LINE('',#1299,#338);
#247=LINE('',#1301,#339);
#248=LINE('',#1302,#340);
#249=LINE('',#1304,#341);
#250=LINE('',#1306,#342);
#251=VECTOR('',#885,10.);
#252=VECTOR('',#886,10.);
#253=VECTOR('',#887,10.);
#254=VECTOR('',#888,10.);
#255=VECTOR('',#891,10.);
#256=VECTOR('',#892,10.);
#257=VECTOR('',#893,10.);
#258=VECTOR('',#896,10.);
#259=VECTOR('',#897,10.);
#260=VECTOR('',#898,10.);
#261=VECTOR('',#901,10.);
#262=VECTOR('',#902,10.);
#263=VECTOR('',#905,10.);
#264=VECTOR('',#906,10.);
#265=VECTOR('',#907,10.);
#266=VECTOR('',#908,10.);
#267=VECTOR('',#911,10.);
#268=VECTOR('',#912,10.);
#269=VECTOR('',#913,10.);
#270=VECTOR('',#916,10.);
#271=VECTOR('',#917,10.);
#272=VECTOR('',#918,10.);
#273=VECTOR('',#921,10.);
#274=VECTOR('',#922,10.);
#275=VECTOR('',#927,3.);
#276=VECTOR('',#934,3.);
#277=VECTOR('',#941,3.);
#278=VECTOR('',#948,3.);
#279=VECTOR('',#953,10.);
#280=VECTOR('',#954,10.);
#281=VECTOR('',#955,10.);
#282=VECTOR('',#956,10.);
#283=VECTOR('',#959,10.);
#284=VECTOR('',#960,10.);
#285=VECTOR('',#961,10.);
#286=VECTOR('',#964,10.);
#287=VECTOR('',#965,10.);
#288=VECTOR('',#966,10.);
#289=VECTOR('',#969,10.);
#290=VECTOR('',#970,10.);
#291=VECTOR('',#979,1.6);
#292=VECTOR('',#986,1.6);
#293=VECTOR('',#993,1.6);
#294=VECTOR('',#1000,1.6);
#295=VECTOR('',#1005,10.);
#296=VECTOR('',#1006,10.);
#297=VECTOR('',#1007,10.);
#298=VECTOR('',#1008,10.);
#299=VECTOR('',#1011,10.);
#300=VECTOR('',#1012,10.);
#301=VECTOR('',#1013,10.);
#302=VECTOR('',#1014,10.);
#303=VECTOR('',#1017,10.);
#304=VECTOR('',#1018,10.);
#305=VECTOR('',#1019,10.);
#306=VECTOR('',#1020,10.);
#307=VECTOR('',#1023,10.);
#308=VECTOR('',#1024,10.);
#309=VECTOR('',#1025,10.);
#310=VECTOR('',#1026,10.);
#311=VECTOR('',#1029,10.);
#312=VECTOR('',#1030,10.);
#313=VECTOR('',#1031,10.);
#314=VECTOR('',#1032,10.);
#315=VECTOR('',#1035,10.);
#316=VECTOR('',#1036,10.);
#317=VECTOR('',#1039,10.);
#318=VECTOR('',#1040,10.);
#319=VECTOR('',#1041,10.);
#320=VECTOR('',#1042,10.);
#321=VECTOR('',#1045,10.);
#322=VECTOR('',#1046,10.);
#323=VECTOR('',#1049,10.);
#324=VECTOR('',#1050,10.);
#325=VECTOR('',#1051,10.);
#326=VECTOR('',#1054,10.);
#327=VECTOR('',#1055,10.);
#328=VECTOR('',#1056,10.);
#329=VECTOR('',#1059,10.);
#330=VECTOR('',#1060,10.);
#331=VECTOR('',#1061,10.);
#332=VECTOR('',#1064,10.);
#333=VECTOR('',#1065,10.);
#334=VECTOR('',#1066,10.);
#335=VECTOR('',#1069,10.);
#336=VECTOR('',#1070,10.);
#337=VECTOR('',#1073,10.);
#338=VECTOR('',#1074,10.);
#339=VECTOR('',#1077,10.);
#340=VECTOR('',#1078,10.);
#341=VECTOR('',#1081,10.);
#342=VECTOR('',#1084,10.);
#343=VERTEX_POINT('',#1089);
#344=VERTEX_POINT('',#1090);
#345=VERTEX_POINT('',#1092);
#346=VERTEX_POINT('',#1094);
#347=VERTEX_POINT('',#1098);
#348=VERTEX_POINT('',#1100);
#349=VERTEX_POINT('',#1104);
#350=VERTEX_POINT('',#1106);
#351=VERTEX_POINT('',#1113);
#352=VERTEX_POINT('',#1114);
#353=VERTEX_POINT('',#1116);
#354=VERTEX_POINT('',#1118);
#355=VERTEX_POINT('',#1122);
#356=VERTEX_POINT('',#1124);
#357=VERTEX_POINT('',#1128);
#358=VERTEX_POINT('',#1130);
#359=VERTEX_POINT('',#1137);
#360=VERTEX_POINT('',#1139);
#361=VERTEX_POINT('',#1143);
#362=VERTEX_POINT('',#1145);
#363=VERTEX_POINT('',#1149);
#364=VERTEX_POINT('',#1151);
#365=VERTEX_POINT('',#1155);
#366=VERTEX_POINT('',#1157);
#367=VERTEX_POINT('',#1161);
#368=VERTEX_POINT('',#1162);
#369=VERTEX_POINT('',#1164);
#370=VERTEX_POINT('',#1166);
#371=VERTEX_POINT('',#1170);
#372=VERTEX_POINT('',#1172);
#373=VERTEX_POINT('',#1176);
#374=VERTEX_POINT('',#1178);
#375=VERTEX_POINT('',#1187);
#376=VERTEX_POINT('',#1189);
#377=VERTEX_POINT('',#1193);
#378=VERTEX_POINT('',#1195);
#379=VERTEX_POINT('',#1199);
#380=VERTEX_POINT('',#1201);
#381=VERTEX_POINT('',#1205);
#382=VERTEX_POINT('',#1207);
#383=VERTEX_POINT('',#1211);
#384=VERTEX_POINT('',#1212);
#385=VERTEX_POINT('',#1214);
#386=VERTEX_POINT('',#1216);
#387=VERTEX_POINT('',#1220);
#388=VERTEX_POINT('',#1221);
#389=VERTEX_POINT('',#1223);
#390=VERTEX_POINT('',#1225);
#391=VERTEX_POINT('',#1229);
#392=VERTEX_POINT('',#1230);
#393=VERTEX_POINT('',#1232);
#394=VERTEX_POINT('',#1234);
#395=VERTEX_POINT('',#1238);
#396=VERTEX_POINT('',#1239);
#397=VERTEX_POINT('',#1241);
#398=VERTEX_POINT('',#1243);
#399=VERTEX_POINT('',#1247);
#400=VERTEX_POINT('',#1248);
#401=VERTEX_POINT('',#1250);
#402=VERTEX_POINT('',#1252);
#403=VERTEX_POINT('',#1259);
#404=VERTEX_POINT('',#1260);
#405=VERTEX_POINT('',#1262);
#406=VERTEX_POINT('',#1264);
#407=VERTEX_POINT('',#1271);
#408=VERTEX_POINT('',#1273);
#409=VERTEX_POINT('',#1277);
#410=VERTEX_POINT('',#1278);
#411=VERTEX_POINT('',#1283);
#412=VERTEX_POINT('',#1285);
#413=VERTEX_POINT('',#1289);
#414=VERTEX_POINT('',#1290);
#415=EDGE_CURVE('',#343,#344,#159,.T.);
#416=EDGE_CURVE('',#345,#343,#160,.T.);
#417=EDGE_CURVE('',#346,#345,#161,.T.);
#418=EDGE_CURVE('',#346,#344,#162,.T.);
#419=EDGE_CURVE('',#344,#347,#163,.T.);
#420=EDGE_CURVE('',#348,#346,#164,.T.);
#421=EDGE_CURVE('',#348,#347,#165,.T.);
#422=EDGE_CURVE('',#347,#349,#166,.T.);
#423=EDGE_CURVE('',#350,#348,#167,.T.);
#424=EDGE_CURVE('',#350,#349,#168,.T.);
#425=EDGE_CURVE('',#349,#343,#169,.T.);
#426=EDGE_CURVE('',#345,#350,#170,.T.);
#427=EDGE_CURVE('',#351,#352,#171,.T.);
#428=EDGE_CURVE('',#353,#351,#172,.T.);
#429=EDGE_CURVE('',#354,#353,#173,.T.);
#430=EDGE_CURVE('',#354,#352,#174,.T.);
#431=EDGE_CURVE('',#352,#355,#175,.T.);
#432=EDGE_CURVE('',#356,#354,#176,.T.);
#433=EDGE_CURVE('',#356,#355,#177,.T.);
#434=EDGE_CURVE('',#355,#357,#178,.T.);
#435=EDGE_CURVE('',#358,#356,#179,.T.);
#436=EDGE_CURVE('',#358,#357,#180,.T.);
#437=EDGE_CURVE('',#357,#351,#181,.T.);
#438=EDGE_CURVE('',#353,#358,#182,.T.);
#439=EDGE_CURVE('',#359,#359,#35,.T.);
#440=EDGE_CURVE('',#359,#360,#183,.T.);
#441=EDGE_CURVE('',#360,#360,#36,.T.);
#442=EDGE_CURVE('',#361,#361,#37,.T.);
#443=EDGE_CURVE('',#361,#362,#184,.T.);
#444=EDGE_CURVE('',#362,#362,#38,.T.);
#445=EDGE_CURVE('',#363,#363,#39,.T.);
#446=EDGE_CURVE('',#363,#364,#185,.T.);
#447=EDGE_CURVE('',#364,#364,#40,.T.);
#448=EDGE_CURVE('',#365,#365,#41,.T.);
#449=EDGE_CURVE('',#365,#366,#186,.T.);
#450=EDGE_CURVE('',#366,#366,#42,.T.);
#451=EDGE_CURVE('',#367,#368,#187,.T.);
#452=EDGE_CURVE('',#368,#369,#188,.T.);
#453=EDGE_CURVE('',#370,#369,#189,.T.);
#454=EDGE_CURVE('',#367,#370,#190,.T.);
#455=EDGE_CURVE('',#371,#367,#191,.T.);
#456=EDGE_CURVE('',#372,#370,#192,.T.);
#457=EDGE_CURVE('',#371,#372,#193,.T.);
#458=EDGE_CURVE('',#373,#371,#194,.T.);
#459=EDGE_CURVE('',#374,#372,#195,.T.);
#460=EDGE_CURVE('',#373,#374,#196,.T.);
#461=EDGE_CURVE('',#368,#373,#197,.T.);
#462=EDGE_CURVE('',#369,#374,#198,.T.);
#463=EDGE_CURVE('',#375,#375,#43,.T.);
#464=EDGE_CURVE('',#375,#376,#199,.T.);
#465=EDGE_CURVE('',#376,#376,#44,.T.);
#466=EDGE_CURVE('',#377,#377,#45,.T.);
#467=EDGE_CURVE('',#377,#378,#200,.T.);
#468=EDGE_CURVE('',#378,#378,#46,.T.);
#469=EDGE_CURVE('',#379,#379,#47,.T.);
#470=EDGE_CURVE('',#379,#380,#201,.T.);
#471=EDGE_CURVE('',#380,#380,#48,.T.);
#472=EDGE_CURVE('',#381,#381,#49,.T.);
#473=EDGE_CURVE('',#381,#382,#202,.T.);
#474=EDGE_CURVE('',#382,#382,#50,.T.);
#475=EDGE_CURVE('',#383,#384,#203,.T.);
#476=EDGE_CURVE('',#385,#383,#204,.T.);
#477=EDGE_CURVE('',#386,#385,#205,.T.);
#478=EDGE_CURVE('',#386,#384,#206,.T.);
#479=EDGE_CURVE('',#387,#388,#207,.T.);
#480=EDGE_CURVE('',#387,#389,#208,.T.);
#481=EDGE_CURVE('',#389,#390,#209,.T.);
#482=EDGE_CURVE('',#388,#390,#210,.T.);
#483=EDGE_CURVE('',#391,#392,#211,.T.);
#484=EDGE_CURVE('',#393,#391,#212,.T.);
#485=EDGE_CURVE('',#394,#393,#213,.T.);
#486=EDGE_CURVE('',#394,#392,#214,.T.);
#487=EDGE_CURVE('',#395,#396,#215,.T.);
#488=EDGE_CURVE('',#395,#397,#216,.T.);
#489=EDGE_CURVE('',#397,#398,#217,.T.);
#490=EDGE_CURVE('',#396,#398,#218,.T.);
#491=EDGE_CURVE('',#399,#400,#219,.T.);
#492=EDGE_CURVE('',#401,#399,#220,.T.);
#493=EDGE_CURVE('',#402,#401,#221,.T.);
#494=EDGE_CURVE('',#402,#400,#222,.T.);
#495=EDGE_CURVE('',#397,#402,#223,.T.);
#496=EDGE_CURVE('',#398,#401,#224,.T.);
#497=EDGE_CURVE('',#403,#404,#225,.T.);
#498=EDGE_CURVE('',#405,#403,#226,.T.);
#499=EDGE_CURVE('',#406,#405,#227,.T.);
#500=EDGE_CURVE('',#406,#404,#228,.T.);
#501=EDGE_CURVE('',#389,#406,#229,.T.);
#502=EDGE_CURVE('',#390,#405,#230,.T.);
#503=EDGE_CURVE('',#407,#386,#231,.T.);
#504=EDGE_CURVE('',#408,#385,#232,.T.);
#505=EDGE_CURVE('',#407,#408,#233,.T.);
#506=EDGE_CURVE('',#409,#410,#234,.T.);
#507=EDGE_CURVE('',#409,#407,#235,.T.);
#508=EDGE_CURVE('',#410,#408,#236,.T.);
#509=EDGE_CURVE('',#411,#394,#237,.T.);
#510=EDGE_CURVE('',#412,#393,#238,.T.);
#511=EDGE_CURVE('',#411,#412,#239,.T.);
#512=EDGE_CURVE('',#413,#414,#240,.T.);
#513=EDGE_CURVE('',#413,#411,#241,.T.);
#514=EDGE_CURVE('',#414,#412,#242,.T.);
#515=EDGE_CURVE('',#391,#410,#243,.T.);
#516=EDGE_CURVE('',#392,#409,#244,.T.);
#517=EDGE_CURVE('',#404,#395,#245,.T.);
#518=EDGE_CURVE('',#403,#396,#246,.T.);
#519=EDGE_CURVE('',#400,#413,#247,.T.);
#520=EDGE_CURVE('',#384,#387,#248,.T.);
#521=EDGE_CURVE('',#399,#414,#249,.T.);
#522=EDGE_CURVE('',#383,#388,#250,.T.);
#523=ORIENTED_EDGE('',*,*,#415,.F.);
#524=ORIENTED_EDGE('',*,*,#416,.F.);
#525=ORIENTED_EDGE('',*,*,#417,.F.);
#526=ORIENTED_EDGE('',*,*,#418,.T.);
#527=ORIENTED_EDGE('',*,*,#419,.F.);
#528=ORIENTED_EDGE('',*,*,#418,.F.);
#529=ORIENTED_EDGE('',*,*,#420,.F.);
#530=ORIENTED_EDGE('',*,*,#421,.T.);
#531=ORIENTED_EDGE('',*,*,#422,.F.);
#532=ORIENTED_EDGE('',*,*,#421,.F.);
#533=ORIENTED_EDGE('',*,*,#423,.F.);
#534=ORIENTED_EDGE('',*,*,#424,.T.);
#535=ORIENTED_EDGE('',*,*,#425,.F.);
#536=ORIENTED_EDGE('',*,*,#424,.F.);
#537=ORIENTED_EDGE('',*,*,#426,.F.);
#538=ORIENTED_EDGE('',*,*,#416,.T.);
#539=ORIENTED_EDGE('',*,*,#427,.F.);
#540=ORIENTED_EDGE('',*,*,#428,.F.);
#541=ORIENTED_EDGE('',*,*,#429,.F.);
#542=ORIENTED_EDGE('',*,*,#430,.T.);
#543=ORIENTED_EDGE('',*,*,#431,.F.);
#544=ORIENTED_EDGE('',*,*,#430,.F.);
#545=ORIENTED_EDGE('',*,*,#432,.F.);
#546=ORIENTED_EDGE('',*,*,#433,.T.);
#547=ORIENTED_EDGE('',*,*,#434,.F.);
#548=ORIENTED_EDGE('',*,*,#433,.F.);
#549=ORIENTED_EDGE('',*,*,#435,.F.);
#550=ORIENTED_EDGE('',*,*,#436,.T.);
#551=ORIENTED_EDGE('',*,*,#437,.F.);
#552=ORIENTED_EDGE('',*,*,#436,.F.);
#553=ORIENTED_EDGE('',*,*,#438,.F.);
#554=ORIENTED_EDGE('',*,*,#428,.T.);
#555=ORIENTED_EDGE('',*,*,#439,.F.);
#556=ORIENTED_EDGE('',*,*,#440,.T.);
#557=ORIENTED_EDGE('',*,*,#441,.F.);
#558=ORIENTED_EDGE('',*,*,#440,.F.);
#559=ORIENTED_EDGE('',*,*,#442,.F.);
#560=ORIENTED_EDGE('',*,*,#443,.T.);
#561=ORIENTED_EDGE('',*,*,#444,.F.);
#562=ORIENTED_EDGE('',*,*,#443,.F.);
#563=ORIENTED_EDGE('',*,*,#445,.F.);
#564=ORIENTED_EDGE('',*,*,#446,.T.);
#565=ORIENTED_EDGE('',*,*,#447,.F.);
#566=ORIENTED_EDGE('',*,*,#446,.F.);
#567=ORIENTED_EDGE('',*,*,#448,.F.);
#568=ORIENTED_EDGE('',*,*,#449,.T.);
#569=ORIENTED_EDGE('',*,*,#450,.F.);
#570=ORIENTED_EDGE('',*,*,#449,.F.);
#571=ORIENTED_EDGE('',*,*,#451,.T.);
#572=ORIENTED_EDGE('',*,*,#452,.T.);
#573=ORIENTED_EDGE('',*,*,#453,.F.);
#574=ORIENTED_EDGE('',*,*,#454,.F.);
#575=ORIENTED_EDGE('',*,*,#455,.T.);
#576=ORIENTED_EDGE('',*,*,#454,.T.);
#577=ORIENTED_EDGE('',*,*,#456,.F.);
#578=ORIENTED_EDGE('',*,*,#457,.F.);
#579=ORIENTED_EDGE('',*,*,#458,.T.);
#580=ORIENTED_EDGE('',*,*,#457,.T.);
#581=ORIENTED_EDGE('',*,*,#459,.F.);
#582=ORIENTED_EDGE('',*,*,#460,.F.);
#583=ORIENTED_EDGE('',*,*,#461,.T.);
#584=ORIENTED_EDGE('',*,*,#460,.T.);
#585=ORIENTED_EDGE('',*,*,#462,.F.);
#586=ORIENTED_EDGE('',*,*,#452,.F.);
#587=ORIENTED_EDGE('',*,*,#462,.T.);
#588=ORIENTED_EDGE('',*,*,#459,.T.);
#589=ORIENTED_EDGE('',*,*,#456,.T.);
#590=ORIENTED_EDGE('',*,*,#453,.T.);
#591=ORIENTED_EDGE('',*,*,#422,.T.);
#592=ORIENTED_EDGE('',*,*,#425,.T.);
#593=ORIENTED_EDGE('',*,*,#415,.T.);
#594=ORIENTED_EDGE('',*,*,#419,.T.);
#595=ORIENTED_EDGE('',*,*,#434,.T.);
#596=ORIENTED_EDGE('',*,*,#437,.T.);
#597=ORIENTED_EDGE('',*,*,#427,.T.);
#598=ORIENTED_EDGE('',*,*,#431,.T.);
#599=ORIENTED_EDGE('',*,*,#441,.T.);
#600=ORIENTED_EDGE('',*,*,#444,.T.);
#601=ORIENTED_EDGE('',*,*,#447,.T.);
#602=ORIENTED_EDGE('',*,*,#450,.T.);
#603=ORIENTED_EDGE('',*,*,#461,.F.);
#604=ORIENTED_EDGE('',*,*,#451,.F.);
#605=ORIENTED_EDGE('',*,*,#455,.F.);
#606=ORIENTED_EDGE('',*,*,#458,.F.);
#607=ORIENTED_EDGE('',*,*,#423,.T.);
#608=ORIENTED_EDGE('',*,*,#420,.T.);
#609=ORIENTED_EDGE('',*,*,#417,.T.);
#610=ORIENTED_EDGE('',*,*,#426,.T.);
#611=ORIENTED_EDGE('',*,*,#435,.T.);
#612=ORIENTED_EDGE('',*,*,#432,.T.);
#613=ORIENTED_EDGE('',*,*,#429,.T.);
#614=ORIENTED_EDGE('',*,*,#438,.T.);
#615=ORIENTED_EDGE('',*,*,#463,.F.);
#616=ORIENTED_EDGE('',*,*,#464,.T.);
#617=ORIENTED_EDGE('',*,*,#465,.F.);
#618=ORIENTED_EDGE('',*,*,#464,.F.);
#619=ORIENTED_EDGE('',*,*,#466,.F.);
#620=ORIENTED_EDGE('',*,*,#467,.T.);
#621=ORIENTED_EDGE('',*,*,#468,.F.);
#622=ORIENTED_EDGE('',*,*,#467,.F.);
#623=ORIENTED_EDGE('',*,*,#469,.F.);
#624=ORIENTED_EDGE('',*,*,#470,.T.);
#625=ORIENTED_EDGE('',*,*,#471,.F.);
#626=ORIENTED_EDGE('',*,*,#470,.F.);
#627=ORIENTED_EDGE('',*,*,#472,.F.);
#628=ORIENTED_EDGE('',*,*,#473,.T.);
#629=ORIENTED_EDGE('',*,*,#474,.F.);
#630=ORIENTED_EDGE('',*,*,#473,.F.);
#631=ORIENTED_EDGE('',*,*,#475,.F.);
#632=ORIENTED_EDGE('',*,*,#476,.F.);
#633=ORIENTED_EDGE('',*,*,#477,.F.);
#634=ORIENTED_EDGE('',*,*,#478,.T.);
#635=ORIENTED_EDGE('',*,*,#479,.F.);
#636=ORIENTED_EDGE('',*,*,#480,.T.);
#637=ORIENTED_EDGE('',*,*,#481,.T.);
#638=ORIENTED_EDGE('',*,*,#482,.F.);
#639=ORIENTED_EDGE('',*,*,#483,.F.);
#640=ORIENTED_EDGE('',*,*,#484,.F.);
#641=ORIENTED_EDGE('',*,*,#485,.F.);
#642=ORIENTED_EDGE('',*,*,#486,.T.);
#643=ORIENTED_EDGE('',*,*,#487,.F.);
#644=ORIENTED_EDGE('',*,*,#488,.T.);
#645=ORIENTED_EDGE('',*,*,#489,.T.);
#646=ORIENTED_EDGE('',*,*,#490,.F.);
#647=ORIENTED_EDGE('',*,*,#491,.F.);
#648=ORIENTED_EDGE('',*,*,#492,.F.);
#649=ORIENTED_EDGE('',*,*,#493,.F.);
#650=ORIENTED_EDGE('',*,*,#494,.T.);
#651=ORIENTED_EDGE('',*,*,#495,.T.);
#652=ORIENTED_EDGE('',*,*,#493,.T.);
#653=ORIENTED_EDGE('',*,*,#496,.F.);
#654=ORIENTED_EDGE('',*,*,#489,.F.);
#655=ORIENTED_EDGE('',*,*,#497,.F.);
#656=ORIENTED_EDGE('',*,*,#498,.F.);
#657=ORIENTED_EDGE('',*,*,#499,.F.);
#658=ORIENTED_EDGE('',*,*,#500,.T.);
#659=ORIENTED_EDGE('',*,*,#501,.T.);
#660=ORIENTED_EDGE('',*,*,#499,.T.);
#661=ORIENTED_EDGE('',*,*,#502,.F.);
#662=ORIENTED_EDGE('',*,*,#481,.F.);
#663=ORIENTED_EDGE('',*,*,#503,.T.);
#664=ORIENTED_EDGE('',*,*,#477,.T.);
#665=ORIENTED_EDGE('',*,*,#504,.F.);
#666=ORIENTED_EDGE('',*,*,#505,.F.);
#667=ORIENTED_EDGE('',*,*,#506,.F.);
#668=ORIENTED_EDGE('',*,*,#507,.T.);
#669=ORIENTED_EDGE('',*,*,#505,.T.);
#670=ORIENTED_EDGE('',*,*,#508,.F.);
#671=ORIENTED_EDGE('',*,*,#509,.T.);
#672=ORIENTED_EDGE('',*,*,#485,.T.);
#673=ORIENTED_EDGE('',*,*,#510,.F.);
#674=ORIENTED_EDGE('',*,*,#511,.F.);
#675=ORIENTED_EDGE('',*,*,#512,.F.);
#676=ORIENTED_EDGE('',*,*,#513,.T.);
#677=ORIENTED_EDGE('',*,*,#511,.T.);
#678=ORIENTED_EDGE('',*,*,#514,.F.);
#679=ORIENTED_EDGE('',*,*,#506,.T.);
#680=ORIENTED_EDGE('',*,*,#515,.F.);
#681=ORIENTED_EDGE('',*,*,#483,.T.);
#682=ORIENTED_EDGE('',*,*,#516,.T.);
#683=ORIENTED_EDGE('',*,*,#497,.T.);
#684=ORIENTED_EDGE('',*,*,#517,.T.);
#685=ORIENTED_EDGE('',*,*,#487,.T.);
#686=ORIENTED_EDGE('',*,*,#518,.F.);
#687=ORIENTED_EDGE('',*,*,#478,.F.);
#688=ORIENTED_EDGE('',*,*,#503,.F.);
#689=ORIENTED_EDGE('',*,*,#507,.F.);
#690=ORIENTED_EDGE('',*,*,#516,.F.);
#691=ORIENTED_EDGE('',*,*,#486,.F.);
#692=ORIENTED_EDGE('',*,*,#509,.F.);
#693=ORIENTED_EDGE('',*,*,#513,.F.);
#694=ORIENTED_EDGE('',*,*,#519,.F.);
#695=ORIENTED_EDGE('',*,*,#494,.F.);
#696=ORIENTED_EDGE('',*,*,#495,.F.);
#697=ORIENTED_EDGE('',*,*,#488,.F.);
#698=ORIENTED_EDGE('',*,*,#517,.F.);
#699=ORIENTED_EDGE('',*,*,#500,.F.);
#700=ORIENTED_EDGE('',*,*,#501,.F.);
#701=ORIENTED_EDGE('',*,*,#480,.F.);
#702=ORIENTED_EDGE('',*,*,#520,.F.);
#703=ORIENTED_EDGE('',*,*,#472,.T.);
#704=ORIENTED_EDGE('',*,*,#469,.T.);
#705=ORIENTED_EDGE('',*,*,#466,.T.);
#706=ORIENTED_EDGE('',*,*,#463,.T.);
#707=ORIENTED_EDGE('',*,*,#448,.T.);
#708=ORIENTED_EDGE('',*,*,#445,.T.);
#709=ORIENTED_EDGE('',*,*,#442,.T.);
#710=ORIENTED_EDGE('',*,*,#439,.T.);
#711=ORIENTED_EDGE('',*,*,#512,.T.);
#712=ORIENTED_EDGE('',*,*,#521,.F.);
#713=ORIENTED_EDGE('',*,*,#491,.T.);
#714=ORIENTED_EDGE('',*,*,#519,.T.);
#715=ORIENTED_EDGE('',*,*,#475,.T.);
#716=ORIENTED_EDGE('',*,*,#520,.T.);
#717=ORIENTED_EDGE('',*,*,#479,.T.);
#718=ORIENTED_EDGE('',*,*,#522,.F.);
#719=ORIENTED_EDGE('',*,*,#522,.T.);
#720=ORIENTED_EDGE('',*,*,#482,.T.);
#721=ORIENTED_EDGE('',*,*,#502,.T.);
#722=ORIENTED_EDGE('',*,*,#498,.T.);
#723=ORIENTED_EDGE('',*,*,#518,.T.);
#724=ORIENTED_EDGE('',*,*,#490,.T.);
#725=ORIENTED_EDGE('',*,*,#496,.T.);
#726=ORIENTED_EDGE('',*,*,#492,.T.);
#727=ORIENTED_EDGE('',*,*,#521,.T.);
#728=ORIENTED_EDGE('',*,*,#514,.T.);
#729=ORIENTED_EDGE('',*,*,#510,.T.);
#730=ORIENTED_EDGE('',*,*,#484,.T.);
#731=ORIENTED_EDGE('',*,*,#515,.T.);
#732=ORIENTED_EDGE('',*,*,#508,.T.);
#733=ORIENTED_EDGE('',*,*,#504,.T.);
#734=ORIENTED_EDGE('',*,*,#476,.T.);
#735=ORIENTED_EDGE('',*,*,#465,.T.);
#736=ORIENTED_EDGE('',*,*,#468,.T.);
#737=ORIENTED_EDGE('',*,*,#471,.T.);
#738=ORIENTED_EDGE('',*,*,#474,.T.);
#739=PLANE('',#825);
#740=PLANE('',#826);
#741=PLANE('',#827);
#742=PLANE('',#828);
#743=PLANE('',#829);
#744=PLANE('',#830);
#745=PLANE('',#831);
#746=PLANE('',#832);
#747=PLANE('',#845);
#748=PLANE('',#846);
#749=PLANE('',#847);
#750=PLANE('',#848);
#751=PLANE('',#849);
#752=PLANE('',#850);
#753=PLANE('',#863);
#754=PLANE('',#864);
#755=PLANE('',#865);
#756=PLANE('',#866);
#757=PLANE('',#867);
#758=PLANE('',#868);
#759=PLANE('',#869);
#760=PLANE('',#870);
#761=PLANE('',#871);
#762=PLANE('',#872);
#763=PLANE('',#873);
#764=PLANE('',#874);
#765=PLANE('',#875);
#766=PLANE('',#876);
#767=PLANE('',#877);
#768=PLANE('',#878);
#769=PLANE('',#879);
#770=PLANE('',#880);
#771=ADVANCED_FACE('',(#59),#739,.F.);
#772=ADVANCED_FACE('',(#60),#740,.F.);
#773=ADVANCED_FACE('',(#61),#741,.F.);
#774=ADVANCED_FACE('',(#62),#742,.F.);
#775=ADVANCED_FACE('',(#63),#743,.F.);
#776=ADVANCED_FACE('',(#64),#744,.F.);
#777=ADVANCED_FACE('',(#65),#745,.F.);
#778=ADVANCED_FACE('',(#66),#746,.F.);
#779=ADVANCED_FACE('',(#67),#51,.T.);
#780=ADVANCED_FACE('',(#68),#52,.T.);
#781=ADVANCED_FACE('',(#69),#53,.T.);
#782=ADVANCED_FACE('',(#70),#54,.T.);
#783=ADVANCED_FACE('',(#71),#747,.T.);
#784=ADVANCED_FACE('',(#72),#748,.T.);
#785=ADVANCED_FACE('',(#73),#749,.T.);
#786=ADVANCED_FACE('',(#74),#750,.T.);
#787=ADVANCED_FACE('',(#75,#15,#16,#17,#18,#19,#20),#751,.T.);
#788=ADVANCED_FACE('',(#76,#21,#22),#752,.F.);
#789=ADVANCED_FACE('',(#77),#55,.F.);
#790=ADVANCED_FACE('',(#78),#56,.F.);
#791=ADVANCED_FACE('',(#79),#57,.F.);
#792=ADVANCED_FACE('',(#80),#58,.F.);
#793=ADVANCED_FACE('',(#81),#753,.T.);
#794=ADVANCED_FACE('',(#82),#754,.T.);
#795=ADVANCED_FACE('',(#83),#755,.T.);
#796=ADVANCED_FACE('',(#84),#756,.T.);
#797=ADVANCED_FACE('',(#85),#757,.T.);
#798=ADVANCED_FACE('',(#86),#758,.T.);
#799=ADVANCED_FACE('',(#87),#759,.T.);
#800=ADVANCED_FACE('',(#88),#760,.T.);
#801=ADVANCED_FACE('',(#89),#761,.T.);
#802=ADVANCED_FACE('',(#90),#762,.T.);
#803=ADVANCED_FACE('',(#91),#763,.T.);
#804=ADVANCED_FACE('',(#92),#764,.T.);
#805=ADVANCED_FACE('',(#93),#765,.T.);
#806=ADVANCED_FACE('',(#94),#766,.T.);
#807=ADVANCED_FACE('',(#95,#23,#24,#25,#26,#27,#28,#29,#30),#767,.F.);
#808=ADVANCED_FACE('',(#96),#768,.T.);
#809=ADVANCED_FACE('',(#97),#769,.T.);
#810=ADVANCED_FACE('',(#98,#31,#32,#33,#34),#770,.T.);
#811=CLOSED_SHELL('',(#771,#772,#773,#774,#775,#776,#777,#778,#779,#780,
#781,#782,#783,#784,#785,#786,#787,#788,#789,#790,#791,#792,#793,#794,#795,
#796,#797,#798,#799,#800,#801,#802,#803,#804,#805,#806,#807,#808,#809,#810));
#812=DERIVED_UNIT_ELEMENT(#814,1.);
#813=DERIVED_UNIT_ELEMENT(#1313,-3.);
#814=(
MASS_UNIT()
NAMED_UNIT(*)
SI_UNIT(.KILO.,.GRAM.)
);
#815=DERIVED_UNIT((#812,#813));
#816=MEASURE_REPRESENTATION_ITEM('density measure',
POSITIVE_RATIO_MEASURE(7850.),#815);
#817=PROPERTY_DEFINITION_REPRESENTATION(#822,#819);
#818=PROPERTY_DEFINITION_REPRESENTATION(#823,#820);
#819=REPRESENTATION('material name',(#821),#1310);
#820=REPRESENTATION('density',(#816),#1310);
#821=DESCRIPTIVE_REPRESENTATION_ITEM('Steel','Steel');
#822=PROPERTY_DEFINITION('material property','material name',#1320);
#823=PROPERTY_DEFINITION('material property','density of part',#1320);
#824=AXIS2_PLACEMENT_3D('',#1087,#881,#882);
#825=AXIS2_PLACEMENT_3D('',#1088,#883,#884);
#826=AXIS2_PLACEMENT_3D('',#1097,#889,#890);
#827=AXIS2_PLACEMENT_3D('',#1103,#894,#895);
#828=AXIS2_PLACEMENT_3D('',#1109,#899,#900);
#829=AXIS2_PLACEMENT_3D('',#1112,#903,#904);
#830=AXIS2_PLACEMENT_3D('',#1121,#909,#910);
#831=AXIS2_PLACEMENT_3D('',#1127,#914,#915);
#832=AXIS2_PLACEMENT_3D('',#1133,#919,#920);
#833=AXIS2_PLACEMENT_3D('',#1136,#923,#924);
#834=AXIS2_PLACEMENT_3D('',#1138,#925,#926);
#835=AXIS2_PLACEMENT_3D('',#1141,#928,#929);
#836=AXIS2_PLACEMENT_3D('',#1142,#930,#931);
#837=AXIS2_PLACEMENT_3D('',#1144,#932,#933);
#838=AXIS2_PLACEMENT_3D('',#1147,#935,#936);
#839=AXIS2_PLACEMENT_3D('',#1148,#937,#938);
#840=AXIS2_PLACEMENT_3D('',#1150,#939,#940);
#841=AXIS2_PLACEMENT_3D('',#1153,#942,#943);
#842=AXIS2_PLACEMENT_3D('',#1154,#944,#945);
#843=AXIS2_PLACEMENT_3D('',#1156,#946,#947);
#844=AXIS2_PLACEMENT_3D('',#1159,#949,#950);
#845=AXIS2_PLACEMENT_3D('',#1160,#951,#952);
#846=AXIS2_PLACEMENT_3D('',#1169,#957,#958);
#847=AXIS2_PLACEMENT_3D('',#1175,#962,#963);
#848=AXIS2_PLACEMENT_3D('',#1181,#967,#968);
#849=AXIS2_PLACEMENT_3D('',#1184,#971,#972);
#850=AXIS2_PLACEMENT_3D('',#1185,#973,#974);
#851=AXIS2_PLACEMENT_3D('',#1186,#975,#976);
#852=AXIS2_PLACEMENT_3D('',#1188,#977,#978);
#853=AXIS2_PLACEMENT_3D('',#1191,#980,#981);
#854=AXIS2_PLACEMENT_3D('',#1192,#982,#983);
#855=AXIS2_PLACEMENT_3D('',#1194,#984,#985);
#856=AXIS2_PLACEMENT_3D('',#1197,#987,#988);
#857=AXIS2_PLACEMENT_3D('',#1198,#989,#990);
#858=AXIS2_PLACEMENT_3D('',#1200,#991,#992);
#859=AXIS2_PLACEMENT_3D('',#1203,#994,#995);
#860=AXIS2_PLACEMENT_3D('',#1204,#996,#997);
#861=AXIS2_PLACEMENT_3D('',#1206,#998,#999);
#862=AXIS2_PLACEMENT_3D('',#1209,#1001,#1002);
#863=AXIS2_PLACEMENT_3D('',#1210,#1003,#1004);
#864=AXIS2_PLACEMENT_3D('',#1219,#1009,#1010);
#865=AXIS2_PLACEMENT_3D('',#1228,#1015,#1016);
#866=AXIS2_PLACEMENT_3D('',#1237,#1021,#1022);
#867=AXIS2_PLACEMENT_3D('',#1246,#1027,#1028);
#868=AXIS2_PLACEMENT_3D('',#1255,#1033,#1034);
#869=AXIS2_PLACEMENT_3D('',#1258,#1037,#1038);
#870=AXIS2_PLACEMENT_3D('',#1267,#1043,#1044);
#871=AXIS2_PLACEMENT_3D('',#1270,#1047,#1048);
#872=AXIS2_PLACEMENT_3D('',#1276,#1052,#1053);
#873=AXIS2_PLACEMENT_3D('',#1282,#1057,#1058);
#874=AXIS2_PLACEMENT_3D('',#1288,#1062,#1063);
#875=AXIS2_PLACEMENT_3D('',#1294,#1067,#1068);
#876=AXIS2_PLACEMENT_3D('',#1297,#1071,#1072);
#877=AXIS2_PLACEMENT_3D('',#1300,#1075,#1076);
#878=AXIS2_PLACEMENT_3D('',#1303,#1079,#1080);
#879=AXIS2_PLACEMENT_3D('',#1305,#1082,#1083);
#880=AXIS2_PLACEMENT_3D('',#1307,#1085,#1086);
#881=DIRECTION('axis',(0.,0.,1.));
#882=DIRECTION('refdir',(1.,0.,0.));
#883=DIRECTION('center_axis',(0.,-1.,0.));
#884=DIRECTION('ref_axis',(1.,0.,0.));
#885=DIRECTION('',(-1.,0.,0.));
#886=DIRECTION('',(0.,0.,1.));
#887=DIRECTION('',(1.,0.,0.));
#888=DIRECTION('',(0.,0.,1.));
#889=DIRECTION('center_axis',(-1.,0.,0.));
#890=DIRECTION('ref_axis',(0.,-1.,0.));
#891=DIRECTION('',(0.,1.,0.));
#892=DIRECTION('',(0.,-1.,0.));
#893=DIRECTION('',(0.,0.,1.));
#894=DIRECTION('center_axis',(0.,1.,0.));
#895=DIRECTION('ref_axis',(-1.,0.,0.));
#896=DIRECTION('',(1.,0.,0.));
#897=DIRECTION('',(-1.,0.,0.));
#898=DIRECTION('',(0.,0.,1.));
#899=DIRECTION('center_axis',(1.,0.,0.));
#900=DIRECTION('ref_axis',(0.,1.,0.));
#901=DIRECTION('',(0.,-1.,0.));
#902=DIRECTION('',(0.,1.,0.));
#903=DIRECTION('center_axis',(0.,-1.,0.));
#904=DIRECTION('ref_axis',(1.,0.,0.));
#905=DIRECTION('',(-1.,0.,0.));
#906=DIRECTION('',(0.,0.,1.));
#907=DIRECTION('',(1.,0.,0.));
#908=DIRECTION('',(0.,0.,1.));
#909=DIRECTION('center_axis',(-1.,0.,0.));
#910=DIRECTION('ref_axis',(0.,-1.,0.));
#911=DIRECTION('',(0.,1.,0.));
#912=DIRECTION('',(0.,-1.,0.));
#913=DIRECTION('',(0.,0.,1.));
#914=DIRECTION('center_axis',(0.,1.,0.));
#915=DIRECTION('ref_axis',(-1.,0.,0.));
#916=DIRECTION('',(1.,0.,0.));
#917=DIRECTION('',(-1.,0.,0.));
#918=DIRECTION('',(0.,0.,1.));
#919=DIRECTION('center_axis',(1.,0.,0.));
#920=DIRECTION('ref_axis',(0.,1.,0.));
#921=DIRECTION('',(0.,-1.,0.));
#922=DIRECTION('',(0.,1.,0.));
#923=DIRECTION('center_axis',(0.,0.,1.));
#924=DIRECTION('ref_axis',(1.,0.,0.));
#925=DIRECTION('center_axis',(0.,0.,1.));
#926=DIRECTION('ref_axis',(1.,0.,0.));
#927=DIRECTION('',(0.,0.,-1.));
#928=DIRECTION('center_axis',(0.,0.,-1.));
#929=DIRECTION('ref_axis',(1.,0.,0.));
#930=DIRECTION('center_axis',(0.,0.,1.));
#931=DIRECTION('ref_axis',(1.,0.,0.));
#932=DIRECTION('center_axis',(0.,0.,1.));
#933=DIRECTION('ref_axis',(1.,0.,0.));
#934=DIRECTION('',(0.,0.,-1.));
#935=DIRECTION('center_axis',(0.,0.,-1.));
#936=DIRECTION('ref_axis',(1.,0.,0.));
#937=DIRECTION('center_axis',(0.,0.,1.));
#938=DIRECTION('ref_axis',(1.,0.,0.));
#939=DIRECTION('center_axis',(0.,0.,1.));
#940=DIRECTION('ref_axis',(1.,0.,0.));
#941=DIRECTION('',(0.,0.,-1.));
#942=DIRECTION('center_axis',(0.,0.,-1.));
#943=DIRECTION('ref_axis',(1.,0.,0.));
#944=DIRECTION('center_axis',(0.,0.,1.));
#945=DIRECTION('ref_axis',(1.,0.,0.));
#946=DIRECTION('center_axis',(0.,0.,1.));
#947=DIRECTION('ref_axis',(1.,0.,0.));
#948=DIRECTION('',(0.,0.,-1.));
#949=DIRECTION('center_axis',(0.,0.,-1.));
#950=DIRECTION('ref_axis',(1.,0.,0.));
#951=DIRECTION('center_axis',(0.,1.,0.));
#952=DIRECTION('ref_axis',(-1.,0.,0.));
#953=DIRECTION('',(-1.,0.,0.));
#954=DIRECTION('',(0.,0.,1.));
#955=DIRECTION('',(-1.,0.,0.));
#956=DIRECTION('',(0.,0.,1.));
#957=DIRECTION('center_axis',(1.,0.,0.));
#958=DIRECTION('ref_axis',(0.,1.,0.));
#959=DIRECTION('',(0.,1.,0.));
#960=DIRECTION('',(0.,1.,0.));
#961=DIRECTION('',(0.,0.,1.));
#962=DIRECTION('center_axis',(0.,-1.,0.));
#963=DIRECTION('ref_axis',(1.,0.,0.));
#964=DIRECTION('',(1.,0.,0.));
#965=DIRECTION('',(1.,0.,0.));
#966=DIRECTION('',(0.,0.,1.));
#967=DIRECTION('center_axis',(-1.,0.,0.));
#968=DIRECTION('ref_axis',(0.,-1.,0.));
#969=DIRECTION('',(0.,-1.,0.));
#970=DIRECTION('',(0.,-1.,0.));
#971=DIRECTION('center_axis',(0.,0.,1.));
#972=DIRECTION('ref_axis',(1.,0.,0.));
#973=DIRECTION('center_axis',(0.,0.,1.));
#974=DIRECTION('ref_axis',(1.,0.,0.));
#975=DIRECTION('center_axis',(0.,0.,1.));
#976=DIRECTION('ref_axis',(1.,0.,0.));
#977=DIRECTION('center_axis',(0.,0.,1.));
#978=DIRECTION('ref_axis',(1.,0.,0.));
#979=DIRECTION('',(0.,0.,1.));
#980=DIRECTION('center_axis',(0.,0.,-1.));
#981=DIRECTION('ref_axis',(1.,0.,0.));
#982=DIRECTION('center_axis',(0.,0.,1.));
#983=DIRECTION('ref_axis',(1.,0.,0.));
#984=DIRECTION('center_axis',(0.,0.,1.));
#985=DIRECTION('ref_axis',(1.,0.,0.));
#986=DIRECTION('',(0.,0.,1.));
#987=DIRECTION('center_axis',(0.,0.,-1.));
#988=DIRECTION('ref_axis',(1.,0.,0.));
#989=DIRECTION('center_axis',(0.,0.,1.));
#990=DIRECTION('ref_axis',(1.,0.,0.));
#991=DIRECTION('center_axis',(0.,0.,1.));
#992=DIRECTION('ref_axis',(1.,0.,0.));
#993=DIRECTION('',(0.,0.,1.));
#994=DIRECTION('center_axis',(0.,0.,-1.));
#995=DIRECTION('ref_axis',(1.,0.,0.));
#996=DIRECTION('center_axis',(0.,0.,1.));
#997=DIRECTION('ref_axis',(1.,0.,0.));
#998=DIRECTION('center_axis',(0.,0.,1.));
#999=DIRECTION('ref_axis',(1.,0.,0.));
#1000=DIRECTION('',(0.,0.,1.));
#1001=DIRECTION('center_axis',(0.,0.,-1.));
#1002=DIRECTION('ref_axis',(1.,0.,0.));
#1003=DIRECTION('center_axis',(-0.707106781186548,-0.707106781186547,0.));
#1004=DIRECTION('ref_axis',(0.707106781186547,-0.707106781186548,0.));
#1005=DIRECTION('',(0.,0.,-1.));
#1006=DIRECTION('',(0.707106781186547,-0.707106781186548,0.));
#1007=DIRECTION('',(0.,0.,1.));
#1008=DIRECTION('',(0.707106781186547,-0.707106781186548,0.));
#1009=DIRECTION('center_axis',(-0.707106781186547,0.707106781186548,0.));
#1010=DIRECTION('ref_axis',(-0.707106781186548,-0.707106781186547,0.));
#1011=DIRECTION('',(0.,0.,1.));
#1012=DIRECTION('',(-0.707106781186548,-0.707106781186547,0.));
#1013=DIRECTION('',(0.,0.,1.));
#1014=DIRECTION('',(-0.707106781186548,-0.707106781186547,0.));
#1015=DIRECTION('center_axis',(-0.707106781186548,0.707106781186548,0.));
#1016=DIRECTION('ref_axis',(-0.707106781186548,-0.707106781186548,0.));
#1017=DIRECTION('',(0.,0.,-1.));
#1018=DIRECTION('',(-0.707106781186548,-0.707106781186548,0.));
#1019=DIRECTION('',(0.,0.,1.));
#1020=DIRECTION('',(-0.707106781186548,-0.707106781186548,0.));
#1021=DIRECTION('center_axis',(-0.707106781186548,-0.707106781186547,0.));
#1022=DIRECTION('ref_axis',(0.707106781186547,-0.707106781186548,0.));
#1023=DIRECTION('',(0.,0.,1.));
#1024=DIRECTION('',(0.707106781186547,-0.707106781186548,0.));
#1025=DIRECTION('',(0.,0.,1.));
#1026=DIRECTION('',(0.707106781186547,-0.707106781186548,0.));
#1027=DIRECTION('center_axis',(0.707106781186548,0.707106781186547,0.));
#1028=DIRECTION('ref_axis',(-0.707106781186547,0.707106781186548,0.));
#1029=DIRECTION('',(0.,0.,-1.));
#1030=DIRECTION('',(-0.707106781186547,0.707106781186548,0.));
#1031=DIRECTION('',(0.,0.,1.));
#1032=DIRECTION('',(-0.707106781186547,0.707106781186548,0.));
#1033=DIRECTION('center_axis',(0.707106781186548,-0.707106781186548,0.));
#1034=DIRECTION('ref_axis',(0.707106781186548,0.707106781186548,0.));
#1035=DIRECTION('',(0.707106781186548,0.707106781186548,0.));
#1036=DIRECTION('',(0.707106781186548,0.707106781186548,0.));
#1037=DIRECTION('center_axis',(0.707106781186547,-0.707106781186548,0.));
#1038=DIRECTION('ref_axis',(0.707106781186548,0.707106781186547,0.));
#1039=DIRECTION('',(0.,0.,-1.));
#1040=DIRECTION('',(0.707106781186548,0.707106781186547,0.));
#1041=DIRECTION('',(0.,0.,1.));
#1042=DIRECTION('',(0.707106781186548,0.707106781186547,0.));
#1043=DIRECTION('center_axis',(-0.707106781186548,-0.707106781186548,0.));
#1044=DIRECTION('ref_axis',(0.707106781186548,-0.707106781186548,0.));
#1045=DIRECTION('',(0.707106781186548,-0.707106781186548,0.));
#1046=DIRECTION('',(0.707106781186548,-0.707106781186548,0.));
#1047=DIRECTION('center_axis',(-0.707106781186548,0.707106781186548,0.));
#1048=DIRECTION('ref_axis',(-0.707106781186548,-0.707106781186548,0.));
#1049=DIRECTION('',(-0.707106781186548,-0.707106781186548,0.));
#1050=DIRECTION('',(-0.707106781186548,-0.707106781186548,0.));
#1051=DIRECTION('',(0.,0.,1.));
#1052=DIRECTION('center_axis',(0.707106781186548,0.707106781186547,0.));
#1053=DIRECTION('ref_axis',(-0.707106781186547,0.707106781186548,0.));
#1054=DIRECTION('',(0.,0.,1.));
#1055=DIRECTION('',(-0.707106781186547,0.707106781186548,0.));
#1056=DIRECTION('',(-0.707106781186547,0.707106781186548,0.));
#1057=DIRECTION('center_axis',(0.707106781186548,0.707106781186548,0.));
#1058=DIRECTION('ref_axis',(-0.707106781186548,0.707106781186548,0.));
#1059=DIRECTION('',(-0.707106781186548,0.707106781186548,0.));
#1060=DIRECTION('',(-0.707106781186548,0.707106781186548,0.));
#1061=DIRECTION('',(0.,0.,1.));
#1062=DIRECTION('center_axis',(0.707106781186548,-0.707106781186548,0.));
#1063=DIRECTION('ref_axis',(0.707106781186548,0.707106781186548,0.));
#1064=DIRECTION('',(0.,0.,1.));
#1065=DIRECTION('',(0.707106781186548,0.707106781186548,0.));
#1066=DIRECTION('',(0.707106781186548,0.707106781186548,0.));
#1067=DIRECTION('center_axis',(0.,1.,0.));
#1068=DIRECTION('ref_axis',(-1.,0.,0.));
#1069=DIRECTION('',(-1.,0.,0.));
#1070=DIRECTION('',(-1.,0.,0.));
#1071=DIRECTION('center_axis',(0.,-1.,0.));
#1072=DIRECTION('ref_axis',(1.,0.,0.));
#1073=DIRECTION('',(1.,0.,0.));
#1074=DIRECTION('',(1.,0.,0.));
#1075=DIRECTION('center_axis',(0.,0.,1.));
#1076=DIRECTION('ref_axis',(1.,0.,0.));
#1077=DIRECTION('',(0.,1.,0.));
#1078=DIRECTION('',(0.,-1.,0.));
#1079=DIRECTION('center_axis',(1.,0.,0.));
#1080=DIRECTION('ref_axis',(0.,1.,0.));
#1081=DIRECTION('',(0.,1.,0.));
#1082=DIRECTION('center_axis',(-1.,0.,0.));
#1083=DIRECTION('ref_axis',(0.,-1.,0.));
#1084=DIRECTION('',(0.,-1.,0.));
#1085=DIRECTION('center_axis',(0.,0.,1.));
#1086=DIRECTION('ref_axis',(1.,0.,0.));
#1087=CARTESIAN_POINT('',(0.,0.,0.));
#1088=CARTESIAN_POINT('Origin',(23.5,-10.,-15.));
#1089=CARTESIAN_POINT('',(26.5,-10.,-13.5));
#1090=CARTESIAN_POINT('',(23.5,-10.,-13.5));
#1091=CARTESIAN_POINT('',(11.75,-10.,-13.5));
#1092=CARTESIAN_POINT('',(26.5,-10.,-15.));
#1093=CARTESIAN_POINT('',(26.5,-10.,-15.));
#1094=CARTESIAN_POINT('',(23.5,-10.,-15.));
#1095=CARTESIAN_POINT('',(11.75,-10.,-15.));
#1096=CARTESIAN_POINT('',(23.5,-10.,-15.));
#1097=CARTESIAN_POINT('Origin',(23.5,10.,-15.));
#1098=CARTESIAN_POINT('',(23.5,10.,-13.5));
#1099=CARTESIAN_POINT('',(23.5,5.,-13.5));
#1100=CARTESIAN_POINT('',(23.5,10.,-15.));
#1101=CARTESIAN_POINT('',(23.5,5.,-15.));
#1102=CARTESIAN_POINT('',(23.5,10.,-15.));
#1103=CARTESIAN_POINT('Origin',(26.5,10.,-15.));
#1104=CARTESIAN_POINT('',(26.5,10.,-13.5));
#1105=CARTESIAN_POINT('',(13.25,10.,-13.5));
#1106=CARTESIAN_POINT('',(26.5,10.,-15.));
#1107=CARTESIAN_POINT('',(13.25,10.,-15.));
#1108=CARTESIAN_POINT('',(26.5,10.,-15.));
#1109=CARTESIAN_POINT('Origin',(26.5,-10.,-15.));
#1110=CARTESIAN_POINT('',(26.5,-5.,-13.5));
#1111=CARTESIAN_POINT('',(26.5,-5.,-15.));
#1112=CARTESIAN_POINT('Origin',(-26.5,-10.,-15.));
#1113=CARTESIAN_POINT('',(-23.5,-10.,-13.5));
#1114=CARTESIAN_POINT('',(-26.5,-10.,-13.5));
#1115=CARTESIAN_POINT('',(-13.25,-10.,-13.5));
#1116=CARTESIAN_POINT('',(-23.5,-10.,-15.));
#1117=CARTESIAN_POINT('',(-23.5,-10.,-15.));
#1118=CARTESIAN_POINT('',(-26.5,-10.,-15.));
#1119=CARTESIAN_POINT('',(-13.25,-10.,-15.));
#1120=CARTESIAN_POINT('',(-26.5,-10.,-15.));
#1121=CARTESIAN_POINT('Origin',(-26.5,10.,-15.));
#1122=CARTESIAN_POINT('',(-26.5,10.,-13.5));
#1123=CARTESIAN_POINT('',(-26.5,5.,-13.5));
#1124=CARTESIAN_POINT('',(-26.5,10.,-15.));
#1125=CARTESIAN_POINT('',(-26.5,5.,-15.));
#1126=CARTESIAN_POINT('',(-26.5,10.,-15.));
#1127=CARTESIAN_POINT('Origin',(-23.5,10.,-15.));
#1128=CARTESIAN_POINT('',(-23.5,10.,-13.5));
#1129=CARTESIAN_POINT('',(-11.75,10.,-13.5));
#1130=CARTESIAN_POINT('',(-23.5,10.,-15.));
#1131=CARTESIAN_POINT('',(-11.75,10.,-15.));
#1132=CARTESIAN_POINT('',(-23.5,10.,-15.));
#1133=CARTESIAN_POINT('Origin',(-23.5,-10.,-15.));
#1134=CARTESIAN_POINT('',(-23.5,-5.,-13.5));
#1135=CARTESIAN_POINT('',(-23.5,-5.,-15.));
#1136=CARTESIAN_POINT('Origin',(-10.,10.,-15.));
#1137=CARTESIAN_POINT('',(-13.,10.,0.));
#1138=CARTESIAN_POINT('Origin',(-10.,10.,0.));
#1139=CARTESIAN_POINT('',(-13.,10.,-13.5));
#1140=CARTESIAN_POINT('',(-13.,10.,-15.));
#1141=CARTESIAN_POINT('Origin',(-10.,10.,-13.5));
#1142=CARTESIAN_POINT('Origin',(10.,10.,-15.));
#1143=CARTESIAN_POINT('',(7.,10.,0.));
#1144=CARTESIAN_POINT('Origin',(10.,10.,0.));
#1145=CARTESIAN_POINT('',(7.,10.,-13.5));
#1146=CARTESIAN_POINT('',(7.,10.,-15.));
#1147=CARTESIAN_POINT('Origin',(10.,10.,-13.5));
#1148=CARTESIAN_POINT('Origin',(10.,-10.,-15.));
#1149=CARTESIAN_POINT('',(7.,-10.,0.));
#1150=CARTESIAN_POINT('Origin',(10.,-10.,0.));
#1151=CARTESIAN_POINT('',(7.,-10.,-13.5));
#1152=CARTESIAN_POINT('',(7.,-10.,-15.));
#1153=CARTESIAN_POINT('Origin',(10.,-10.,-13.5));
#1154=CARTESIAN_POINT('Origin',(-10.,-10.,-15.));
#1155=CARTESIAN_POINT('',(-13.,-10.,0.));
#1156=CARTESIAN_POINT('Origin',(-10.,-10.,0.));
#1157=CARTESIAN_POINT('',(-13.,-10.,-13.5));
#1158=CARTESIAN_POINT('',(-13.,-10.,-15.));
#1159=CARTESIAN_POINT('Origin',(-10.,-10.,-13.5));
#1160=CARTESIAN_POINT('Origin',(37.5,17.5,-15.));
#1161=CARTESIAN_POINT('',(37.5,17.5,-15.));
#1162=CARTESIAN_POINT('',(-37.5,17.5,-15.));
#1163=CARTESIAN_POINT('',(37.5,17.5,-15.));
#1164=CARTESIAN_POINT('',(-37.5,17.5,-13.5));
#1165=CARTESIAN_POINT('',(-37.5,17.5,-15.));
#1166=CARTESIAN_POINT('',(37.5,17.5,-13.5));
#1167=CARTESIAN_POINT('',(37.5,17.5,-13.5));
#1168=CARTESIAN_POINT('',(37.5,17.5,-15.));
#1169=CARTESIAN_POINT('Origin',(37.5,-17.5,-15.));
#1170=CARTESIAN_POINT('',(37.5,-17.5,-15.));
#1171=CARTESIAN_POINT('',(37.5,-17.5,-15.));
#1172=CARTESIAN_POINT('',(37.5,-17.5,-13.5));
#1173=CARTESIAN_POINT('',(37.5,-17.5,-13.5));
#1174=CARTESIAN_POINT('',(37.5,-17.5,-15.));
#1175=CARTESIAN_POINT('Origin',(-37.5,-17.5,-15.));
#1176=CARTESIAN_POINT('',(-37.5,-17.5,-15.));
#1177=CARTESIAN_POINT('',(-37.5,-17.5,-15.));
#1178=CARTESIAN_POINT('',(-37.5,-17.5,-13.5));
#1179=CARTESIAN_POINT('',(-37.5,-17.5,-13.5));
#1180=CARTESIAN_POINT('',(-37.5,-17.5,-15.));
#1181=CARTESIAN_POINT('Origin',(-37.5,17.5,-15.));
#1182=CARTESIAN_POINT('',(-37.5,17.5,-15.));
#1183=CARTESIAN_POINT('',(-37.5,17.5,-13.5));
#1184=CARTESIAN_POINT('Origin',(0.,0.,-13.5));
#1185=CARTESIAN_POINT('Origin',(0.,0.,-15.));
#1186=CARTESIAN_POINT('Origin',(-80.3883476483185,-80.3883476483184,0.));
#1187=CARTESIAN_POINT('',(-81.9883476483185,-80.3883476483184,0.));
#1188=CARTESIAN_POINT('Origin',(-80.3883476483185,-80.3883476483184,0.));
#1189=CARTESIAN_POINT('',(-81.9883476483185,-80.3883476483184,2.5));
#1190=CARTESIAN_POINT('',(-81.9883476483185,-80.3883476483184,0.));
#1191=CARTESIAN_POINT('Origin',(-80.3883476483185,-80.3883476483184,2.5));
#1192=CARTESIAN_POINT('Origin',(-80.3883476483184,80.3883476483184,0.));
#1193=CARTESIAN_POINT('',(-81.9883476483184,80.3883476483184,0.));
#1194=CARTESIAN_POINT('Origin',(-80.3883476483184,80.3883476483184,0.));
#1195=CARTESIAN_POINT('',(-81.9883476483184,80.3883476483184,2.5));
#1196=CARTESIAN_POINT('',(-81.9883476483184,80.3883476483184,0.));
#1197=CARTESIAN_POINT('Origin',(-80.3883476483184,80.3883476483184,2.5));
#1198=CARTESIAN_POINT('Origin',(80.3883476483184,80.3883476483184,0.));
#1199=CARTESIAN_POINT('',(78.7883476483184,80.3883476483184,0.));
#1200=CARTESIAN_POINT('Origin',(80.3883476483184,80.3883476483184,0.));
#1201=CARTESIAN_POINT('',(78.7883476483184,80.3883476483184,2.5));
#1202=CARTESIAN_POINT('',(78.7883476483184,80.3883476483184,0.));
#1203=CARTESIAN_POINT('Origin',(80.3883476483184,80.3883476483184,2.5));
#1204=CARTESIAN_POINT('Origin',(80.3883476483184,-80.3883476483185,0.));
#1205=CARTESIAN_POINT('',(78.7883476483184,-80.3883476483185,0.));
#1206=CARTESIAN_POINT('Origin',(80.3883476483184,-80.3883476483185,0.));
#1207=CARTESIAN_POINT('',(78.7883476483184,-80.3883476483185,2.5));
#1208=CARTESIAN_POINT('',(78.7883476483184,-80.3883476483185,0.));
#1209=CARTESIAN_POINT('Origin',(80.3883476483184,-80.3883476483185,2.5));
#1210=CARTESIAN_POINT('Origin',(-91.9238815542512,84.8528137423857,0.));
#1211=CARTESIAN_POINT('',(-20.,12.9289321881345,2.5));
#1212=CARTESIAN_POINT('',(-20.,12.9289321881345,0.));
#1213=CARTESIAN_POINT('',(-20.,12.9289321881345,0.));
#1214=CARTESIAN_POINT('',(-91.9238815542512,84.8528137423857,2.5));
#1215=CARTESIAN_POINT('',(-91.9238815542512,84.8528137423857,2.5));
#1216=CARTESIAN_POINT('',(-91.9238815542512,84.8528137423857,0.));
#1217=CARTESIAN_POINT('',(-91.9238815542512,84.8528137423857,0.));
#1218=CARTESIAN_POINT('',(-91.9238815542512,84.8528137423857,0.));
#1219=CARTESIAN_POINT('Origin',(-7.07106781186547,6.66133814775094E-15,
0.));
#1220=CARTESIAN_POINT('',(-20.,-12.9289321881345,0.));
#1221=CARTESIAN_POINT('',(-20.,-12.9289321881345,2.5));
#1222=CARTESIAN_POINT('',(-20.,-12.9289321881345,0.));
#1223=CARTESIAN_POINT('',(-91.9238815542512,-84.8528137423857,0.));
#1224=CARTESIAN_POINT('',(-3.53553390593274,3.53553390593274,0.));
#1225=CARTESIAN_POINT('',(-91.9238815542512,-84.8528137423857,2.5));
#1226=CARTESIAN_POINT('',(-91.9238815542512,-84.8528137423857,0.));
#1227=CARTESIAN_POINT('',(-3.53553390593274,3.53553390593274,2.5));
#1228=CARTESIAN_POINT('Origin',(84.8528137423857,91.9238815542512,0.));
#1229=CARTESIAN_POINT('',(12.9289321881345,20.,2.5));
#1230=CARTESIAN_POINT('',(12.9289321881345,20.,0.));
#1231=CARTESIAN_POINT('',(12.9289321881345,20.,0.));
#1232=CARTESIAN_POINT('',(84.8528137423857,91.9238815542512,2.5));
#1233=CARTESIAN_POINT('',(84.8528137423857,91.9238815542512,2.5));
#1234=CARTESIAN_POINT('',(84.8528137423857,91.9238815542512,0.));
#1235=CARTESIAN_POINT('',(84.8528137423857,91.9238815542512,0.));
#1236=CARTESIAN_POINT('',(84.8528137423857,91.9238815542512,0.));
#1237=CARTESIAN_POINT('Origin',(-1.55431223447522E-14,-7.07106781186546,
0.));
#1238=CARTESIAN_POINT('',(12.9289321881345,-20.,0.));
#1239=CARTESIAN_POINT('',(12.9289321881345,-20.,2.5));
#1240=CARTESIAN_POINT('',(12.9289321881345,-20.,0.));
#1241=CARTESIAN_POINT('',(84.8528137423857,-91.9238815542512,0.));
#1242=CARTESIAN_POINT('',(-3.53553390593274,-3.53553390593274,0.));
#1243=CARTESIAN_POINT('',(84.8528137423857,-91.9238815542512,2.5));
#1244=CARTESIAN_POINT('',(84.8528137423857,-91.9238815542512,0.));
#1245=CARTESIAN_POINT('',(-3.53553390593274,-3.53553390593274,2.5));
#1246=CARTESIAN_POINT('Origin',(91.9238815542512,-84.8528137423857,0.));
#1247=CARTESIAN_POINT('',(20.,-12.9289321881345,2.5));
#1248=CARTESIAN_POINT('',(20.,-12.9289321881345,0.));
#1249=CARTESIAN_POINT('',(20.,-12.9289321881346,0.));
#1250=CARTESIAN_POINT('',(91.9238815542512,-84.8528137423857,2.5));
#1251=CARTESIAN_POINT('',(91.9238815542512,-84.8528137423857,2.5));
#1252=CARTESIAN_POINT('',(91.9238815542512,-84.8528137423857,0.));
#1253=CARTESIAN_POINT('',(91.9238815542512,-84.8528137423857,0.));
#1254=CARTESIAN_POINT('',(91.9238815542512,-84.8528137423857,0.));
#1255=CARTESIAN_POINT('Origin',(84.8528137423857,-91.9238815542512,0.));
#1256=CARTESIAN_POINT('',(84.8528137423857,-91.9238815542512,0.));
#1257=CARTESIAN_POINT('',(84.8528137423857,-91.9238815542512,2.5));
#1258=CARTESIAN_POINT('Origin',(-84.8528137423857,-91.9238815542512,0.));
#1259=CARTESIAN_POINT('',(-12.9289321881345,-20.,2.5));
#1260=CARTESIAN_POINT('',(-12.9289321881345,-20.,0.));
#1261=CARTESIAN_POINT('',(-12.9289321881346,-20.,0.));
#1262=CARTESIAN_POINT('',(-84.8528137423857,-91.9238815542512,2.5));
#1263=CARTESIAN_POINT('',(-84.8528137423857,-91.9238815542512,2.5));
#1264=CARTESIAN_POINT('',(-84.8528137423857,-91.9238815542512,0.));
#1265=CARTESIAN_POINT('',(-84.8528137423857,-91.9238815542512,0.));
#1266=CARTESIAN_POINT('',(-84.8528137423857,-91.9238815542512,0.));
#1267=CARTESIAN_POINT('Origin',(-91.9238815542512,-84.8528137423857,0.));
#1268=CARTESIAN_POINT('',(-91.9238815542512,-84.8528137423857,0.));
#1269=CARTESIAN_POINT('',(-91.9238815542512,-84.8528137423857,2.5));
#1270=CARTESIAN_POINT('Origin',(-84.8528137423857,91.9238815542512,0.));
#1271=CARTESIAN_POINT('',(-84.8528137423857,91.9238815542512,0.));
#1272=CARTESIAN_POINT('',(-84.8528137423857,91.9238815542512,0.));
#1273=CARTESIAN_POINT('',(-84.8528137423857,91.9238815542512,2.5));
#1274=CARTESIAN_POINT('',(-84.8528137423857,91.9238815542512,2.5));
#1275=CARTESIAN_POINT('',(-84.8528137423857,91.9238815542512,0.));
#1276=CARTESIAN_POINT('Origin',(6.10622663543836E-15,7.07106781186547,0.));
#1277=CARTESIAN_POINT('',(-12.9289321881345,20.,0.));
#1278=CARTESIAN_POINT('',(-12.9289321881345,20.,2.5));
#1279=CARTESIAN_POINT('',(-12.9289321881345,20.,0.));
#1280=CARTESIAN_POINT('',(3.53553390593274,3.53553390593274,0.));
#1281=CARTESIAN_POINT('',(3.53553390593274,3.53553390593274,2.5));
#1282=CARTESIAN_POINT('Origin',(91.9238815542512,84.8528137423857,0.));
#1283=CARTESIAN_POINT('',(91.9238815542512,84.8528137423857,0.));
#1284=CARTESIAN_POINT('',(91.9238815542512,84.8528137423857,0.));
#1285=CARTESIAN_POINT('',(91.9238815542512,84.8528137423857,2.5));
#1286=CARTESIAN_POINT('',(91.9238815542512,84.8528137423857,2.5));
#1287=CARTESIAN_POINT('',(91.9238815542512,84.8528137423857,0.));
#1288=CARTESIAN_POINT('Origin',(7.07106781186546,-1.27675647831893E-14,
0.));
#1289=CARTESIAN_POINT('',(20.,12.9289321881345,0.));
#1290=CARTESIAN_POINT('',(20.,12.9289321881345,2.5));
#1291=CARTESIAN_POINT('',(20.,12.9289321881345,0.));
#1292=CARTESIAN_POINT('',(3.53553390593274,-3.53553390593274,0.));
#1293=CARTESIAN_POINT('',(3.53553390593274,-3.53553390593274,2.5));
#1294=CARTESIAN_POINT('Origin',(20.,20.,0.));
#1295=CARTESIAN_POINT('',(20.,20.,2.5));
#1296=CARTESIAN_POINT('',(20.,20.,0.));
#1297=CARTESIAN_POINT('Origin',(-20.,-20.,0.));
#1298=CARTESIAN_POINT('',(-20.,-20.,0.));
#1299=CARTESIAN_POINT('',(-20.,-20.,2.5));
#1300=CARTESIAN_POINT('Origin',(0.,0.,0.));
#1301=CARTESIAN_POINT('',(20.,-20.,0.));
#1302=CARTESIAN_POINT('',(-20.,20.,0.));
#1303=CARTESIAN_POINT('Origin',(20.,-20.,0.));
#1304=CARTESIAN_POINT('',(20.,-20.,2.5));
#1305=CARTESIAN_POINT('Origin',(-20.,20.,0.));
#1306=CARTESIAN_POINT('',(-20.,20.,2.5));
#1307=CARTESIAN_POINT('Origin',(0.,0.,2.5));
#1308=UNCERTAINTY_MEASURE_WITH_UNIT(LENGTH_MEASURE(0.01),#1312,
'DISTANCE_ACCURACY_VALUE',
'Maximum model space distance between geometric entities at asserted c
onnectivities');
#1309=UNCERTAINTY_MEASURE_WITH_UNIT(LENGTH_MEASURE(0.01),#1312,
'DISTANCE_ACCURACY_VALUE',
'Maximum model space distance between geometric entities at asserted c
onnectivities');
#1310=(
GEOMETRIC_REPRESENTATION_CONTEXT(3)
GLOBAL_UNCERTAINTY_ASSIGNED_CONTEXT((#1308))
GLOBAL_UNIT_ASSIGNED_CONTEXT((#1312,#1314,#1315))
REPRESENTATION_CONTEXT('','3D')
);
#1311=(
GEOMETRIC_REPRESENTATION_CONTEXT(3)
GLOBAL_UNCERTAINTY_ASSIGNED_CONTEXT((#1309))
GLOBAL_UNIT_ASSIGNED_CONTEXT((#1312,#1314,#1315))
REPRESENTATION_CONTEXT('','3D')
);
#1312=(
LENGTH_UNIT()
NAMED_UNIT(*)
SI_UNIT(.MILLI.,.METRE.)
);
#1313=(
LENGTH_UNIT()
NAMED_UNIT(*)
SI_UNIT($,.METRE.)
);
#1314=(
NAMED_UNIT(*)
PLANE_ANGLE_UNIT()
SI_UNIT($,.RADIAN.)
);
#1315=(
NAMED_UNIT(*)
SI_UNIT($,.STERADIAN.)
SOLID_ANGLE_UNIT()
);
#1316=SHAPE_DEFINITION_REPRESENTATION(#1317,#1318);
#1317=PRODUCT_DEFINITION_SHAPE('',$,#1320);
#1318=SHAPE_REPRESENTATION('',(#824),#1310);
#1319=PRODUCT_DEFINITION_CONTEXT('part definition',#1324,'design');
#1320=PRODUCT_DEFINITION('2026-07-25-14-12-13-201','(Unsaved)',#1321,#1319);
#1321=PRODUCT_DEFINITION_FORMATION('',$,#1326);
#1322=PRODUCT_RELATED_PRODUCT_CATEGORY('(Unsaved)','(Unsaved)',(#1326));
#1323=APPLICATION_PROTOCOL_DEFINITION('international standard',
'automotive_design',2009,#1324);
#1324=APPLICATION_CONTEXT(
'Core Data for Automotive Mechanical Design Process');
#1325=PRODUCT_CONTEXT('part definition',#1324,'mechanical');
#1326=PRODUCT('2026-07-25-14-12-13-201','(Unsaved)',$,(#1325));
#1327=PRESENTATION_STYLE_ASSIGNMENT((#1328));
#1328=SURFACE_STYLE_USAGE(.BOTH.,#1329);
#1329=SURFACE_SIDE_STYLE('',(#1330));
#1330=SURFACE_STYLE_FILL_AREA(#1331);
#1331=FILL_AREA_STYLE('Steel - Satin',(#1332));
#1332=FILL_AREA_STYLE_COLOUR('Steel - Satin',#1333);
#1333=COLOUR_RGB('Steel - Satin',0.627450980392157,0.627450980392157,0.627450980392157);
ENDSEC;
END-ISO-10303-21;
